<svg xmlns="http://www.w3.org/2000/svg" viewBox="0 0 64 64" role="img" aria-labelledby="title">
<title id="title">Markdown · 深色几何</title>
<rect x="4" y="4" width="56" height="56" rx="15" fill="#51446D"/>
<path d="M13 11h20" stroke="#796B95" stroke-width="2.5" stroke-linecap="round"/>
<path d="M43.077 45H30.227V43.591Q31.125 43.518 32.338 43.238Q33.552 42.958 33.552 42.543Q33.552 42.398 33.527 42.218Q33.502 42.037 33.386 41.73L31.374 36.418H23.229Q22.947 37.158 22.606 38.152Q22.265 39.146 22.016 39.923Q21.7 40.935 21.642 41.386Q21.584 41.838 21.584 42.019Q21.584 42.597 22.39 43.003Q23.196 43.41 25.074 43.591V45H15.4V43.591Q15.949 43.555 16.638 43.401Q17.328 43.247 17.727 42.976Q18.409 42.543 18.882 41.91Q19.356 41.278 19.672 40.411Q21.6 35.334 23.537 30.238Q25.473 25.143 27.817 19H31.142Q34.4 27.709 36.245 32.768Q38.09 37.827 39.386 41.151Q39.603 41.694 39.935 42.136Q40.267 42.579 40.883 42.976Q41.348 43.265 41.963 43.41Q42.578 43.555 43.077 43.591ZM30.693 34.629 27.269 25.342 23.894 34.629Z" fill="#FFFFFF"/>
<path d="M49 19v26" fill="none" stroke="#FFFFFF" stroke-width="3.4" stroke-linecap="round"/>
</svg>
